<svg xmlns="https://www.w3.org/2000/svg" xmlns:xlink="https://www.w3.org/1999/xlink" viewBox="0 0 452.03 43.4"><defs><style>.cls-1{fill:#13b09d;}.cls-2{fill:#fff;}.cls-3{fill:url(#linear-gradient);}.cls-4{fill:url(#linear-gradient-2);}</style><linearGradient id="linear-gradient" x1="262.47" y1="-22.07" x2="289.83" y2="-22.07" gradientTransform="translate(2.37 38.73) rotate(4.07)" gradientUnits="userSpaceOnUse"><stop offset="0.09" stop-color="#fff"/><stop offset="0.16" stop-color="#e6f7f5"/><stop offset="0.52" stop-color="#77d1c6"/><stop offset="0.77" stop-color="#31b9a8"/><stop offset="0.89" stop-color="#16b09d"/></linearGradient><linearGradient id="linear-gradient-2" x1="262.93" y1="-38.61" x2="290.28" y2="-38.61" gradientTransform="translate(2.37 38.73) rotate(4.07)" gradientUnits="userSpaceOnUse"><stop offset="0.07" stop-color="#16b09d"/><stop offset="0.16" stop-color="#27b6a4"/><stop offset="0.34" stop-color="#53c5b7"/><stop offset="0.6" stop-color="#9bddd5"/><stop offset="0.91" stop-color="#fcfefe"/><stop offset="0.92" stop-color="#fff"/></linearGradient></defs><title>WPT-ORG-WTAsset 4</title><g id="Layer_2" data-name="Layer 2"><g id="Layer_3" data-name="Layer 3"><path class="cls-1" d="M363.81,4.78A19.31,19.31,0,1,1,344.5,24.15,19.34,19.34,0,0,1,363.81,4.78Zm0,32.18c7,0,12.34-5.74,12.34-12.82s-5.36-12.93-12.34-12.93S351.47,17,351.47,24.15,356.83,37,363.81,37Z"/><path class="cls-1" d="M414.11,37.77a3.69,3.69,0,0,1,.64,2.09,3.56,3.56,0,0,1-3.49,3.54A3.4,3.4,0,0,1,408.48,42l-8.74-12H393.2v9.81a3.45,3.45,0,0,1-3.43,3.54,3.53,3.53,0,0,1-3.49-3.54V8.81a3.52,3.52,0,0,1,3.54-3.49h12.34a12.76,12.76,0,0,1,12.76,12.76,12.08,12.08,0,0,1-7.29,11ZM393.2,23.61h9A5.76,5.76,0,0,0,408,17.92a6.11,6.11,0,0,0-5.85-6.17h-9Z"/><path class="cls-1" d="M436.64,4.78c4.72,0,9.81,1.77,12.71,4.88a3.68,3.68,0,0,1,1,2.47,3.15,3.15,0,0,1-3.06,3,4.35,4.35,0,0,1-3-1.34,11.92,11.92,0,0,0-7.62-2.63c-6.76,0-12.23,5.85-12.23,12.93S429.88,37,436.64,37A11.93,11.93,0,0,0,445.06,34V27.85h-8.42a3.31,3.31,0,0,1-3.49-3.33,3.25,3.25,0,0,1,3.49-3.17h11.91A3.5,3.5,0,0,1,452,24.79v9.87a3.57,3.57,0,0,1-.86,2.25,19,19,0,0,1-14.53,6.49,19.31,19.31,0,0,1,0-38.62Z"/><path class="cls-2" d="M124.33,18.36c-.11.91-.48,1.39-1.07,1.39-.21,0-1.29-.21-2.09-.21a7.12,7.12,0,0,0-6.06,3.22V40a1.39,1.39,0,0,1-1.56,1.56h-3.22A1.39,1.39,0,0,1,108.77,40V16.16a1.4,1.4,0,0,1,1.5-1.56l2.63-.27a1.35,1.35,0,0,1,1.66,1.45l.05,2.57a7.45,7.45,0,0,1,7-4.4,7.34,7.34,0,0,1,1.93.21,1.39,1.39,0,0,1,.91,1.66Z"/><path class="cls-2" d="M125.21,34.77a7.38,7.38,0,0,1,3-6.06c2.15-1.88,6.54-3.06,12.6-3.11v-.7a9.36,9.36,0,0,0-.48-3.59c-.7-1.61-2.31-2.41-4.72-2.41a15.26,15.26,0,0,0-4.88.8c-1.61.48-2.47.75-2.52.75-.7,0-1.07-.43-1.13-1.23l-.16-1.39a2,2,0,0,1,1.23-2.09A19.46,19.46,0,0,1,136.36,14c4.45,0,7.46,1.29,9.12,3.86,1,1.5,1.45,4,1.45,7.51v8.85c0,2.41.54,3.27,2.31,3.54,1.07.27,1.61.8,1.55,1.66l-.05.91a1.51,1.51,0,0,1-1.45,1.61,20,20,0,0,1-2.25.16c-2.74,0-4.56-1.07-5.36-3.16a11.68,11.68,0,0,1-8.26,3.22C128.64,42.12,125.21,39.28,125.21,34.77Zm15.61.7V29.73c-7.13-.16-9.87,1.82-9.87,4.4,0,1.93,1.56,3.38,4.34,3.38A9,9,0,0,0,140.81,35.47Z"/><path class="cls-2" d="M172,41.53A1.39,1.39,0,0,1,170.41,40V27.58a31,31,0,0,0-.16-3.38c-.32-3.27-2-4.93-5-4.93a8.2,8.2,0,0,0-6,2.63V40a1.39,1.39,0,0,1-1.56,1.56h-3.22A1.39,1.39,0,0,1,153,40V16.16a1.46,1.46,0,0,1,1.5-1.61l2.63-.21c1-.11,1.61.32,1.66,1.29l.05,2.15a10.59,10.59,0,0,1,8.47-3.86c4.24,0,7,1.77,8.42,5.31.64,1.5,1,4.13,1,7.83V40a1.39,1.39,0,0,1-1.56,1.56Z"/><path class="cls-2" d="M196.23,39.38c-1.77,1.77-4.5,2.63-8.1,2.63a18.7,18.7,0,0,1-6-1c-1.56-.48-1.93-.91-1.93-2l-.05-1.66c0-.91.38-1.39,1.13-1.39.11,0,.86.21,2.2.59a16.08,16.08,0,0,0,4.24.54c3.17,0,4.72-1.5,4.72-3.22,0-1.45-.86-2.52-3.92-3.59l-2.31-.8c-4.08-1.45-6.11-3.92-6.11-7.46a7.53,7.53,0,0,1,2.63-5.63c1.77-1.66,4.34-2.52,7.72-2.52a18.92,18.92,0,0,1,5.69.8c1.13.32,1.61,1,1.5,1.93l-.16,1.5c-.05.91-.48,1.34-1.23,1.34a15.55,15.55,0,0,1-2-.37,15.27,15.27,0,0,0-3.43-.38c-3,0-4.45,1.34-4.45,2.9,0,1.34.91,2.31,3.92,3.33l2.31.8c4.24,1.45,6.33,4,6.33,7.67A8.26,8.26,0,0,1,196.23,39.38Z"/><path class="cls-2" d="M203.94,41.53A1.39,1.39,0,0,1,202.39,40V1.89a1.46,1.46,0,0,1,1.5-1.61L207.05,0c1.13-.11,1.66.38,1.66,1.5V40a1.39,1.39,0,0,1-1.56,1.56Z"/><path class="cls-2" d="M211.68,34.77a7.38,7.38,0,0,1,3-6.06c2.15-1.88,6.54-3.06,12.6-3.11v-.7a9.36,9.36,0,0,0-.48-3.59c-.7-1.61-2.31-2.41-4.72-2.41a15.26,15.26,0,0,0-4.88.8c-1.61.48-2.47.75-2.52.75-.7,0-1.07-.43-1.13-1.23l-.16-1.39a2,2,0,0,1,1.23-2.09A19.46,19.46,0,0,1,222.83,14c4.45,0,7.46,1.29,9.12,3.86,1,1.5,1.45,4,1.45,7.51v8.85c0,2.41.54,3.27,2.31,3.54,1.07.27,1.61.8,1.55,1.66l-.05.91a1.51,1.51,0,0,1-1.45,1.61,20,20,0,0,1-2.25.16c-2.74,0-4.56-1.07-5.36-3.16a11.68,11.68,0,0,1-8.26,3.22C215.11,42.12,211.68,39.28,211.68,34.77Zm15.61.7V29.73c-7.13-.16-9.87,1.82-9.87,4.4,0,1.93,1.56,3.38,4.34,3.38A9,9,0,0,0,227.28,35.47Z"/><path class="cls-2" d="M254.31,39.44a1.6,1.6,0,0,1-1.18,1.72,13.12,13.12,0,0,1-4.56.86c-6,0-8.9-3.06-8.9-9.22V19.91h-2.47a1.39,1.39,0,0,1-1.56-1.55V17.07a1.56,1.56,0,0,1,1.45-1.66l3-.32.59-4.34a1.45,1.45,0,0,1,1.61-1.45l2.15-.05A1.41,1.41,0,0,1,246,10.8v4.29h6a1.36,1.36,0,0,1,1.55,1.61l-.11,1.72a1.41,1.41,0,0,1-1.61,1.5H246V32.14q0,4.67,4.18,4.67c1,0,2.68-.43,3.06-.43a1.19,1.19,0,0,1,1.18,1.39Z"/><path class="cls-2" d="M255.92,5.38A3.44,3.44,0,0,1,257,2.7a4.11,4.11,0,0,1,2.9-1.07,3.89,3.89,0,0,1,2.84,1.07,3.56,3.56,0,0,1,1.13,2.74,3.81,3.81,0,0,1-4,3.81A3.63,3.63,0,0,1,255.92,5.38Zm2.41,36.15A1.39,1.39,0,0,1,256.78,40V16.7a1.46,1.46,0,0,1,1.5-1.61l3.16-.27c1.13-.11,1.66.38,1.66,1.5V40a1.39,1.39,0,0,1-1.56,1.56Z"/><path class="cls-2" d="M316,41.53A1.39,1.39,0,0,1,314.45,40V27.58a31,31,0,0,0-.16-3.38c-.32-3.27-2-4.93-5-4.93a8.2,8.2,0,0,0-6,2.63V40a1.39,1.39,0,0,1-1.56,1.56h-3.22A1.39,1.39,0,0,1,297,40V16.16a1.46,1.46,0,0,1,1.5-1.61l2.63-.21c1-.11,1.61.32,1.66,1.29l.05,2.15a10.59,10.59,0,0,1,8.47-3.86c4.24,0,7,1.77,8.42,5.31.64,1.5,1,4.13,1,7.83V40a1.39,1.39,0,0,1-1.56,1.56Z"/><path class="cls-2" d="M340.27,39.38c-1.77,1.77-4.5,2.63-8.1,2.63a18.7,18.7,0,0,1-6-1c-1.56-.48-1.93-.91-1.93-2l-.05-1.66c0-.91.38-1.39,1.13-1.39.11,0,.86.21,2.2.59a16.08,16.08,0,0,0,4.24.54c3.17,0,4.72-1.5,4.72-3.22,0-1.45-.86-2.52-3.92-3.59l-2.31-.8c-4.08-1.45-6.11-3.92-6.11-7.46a7.53,7.53,0,0,1,2.63-5.63c1.77-1.66,4.34-2.52,7.72-2.52a18.92,18.92,0,0,1,5.69.8c1.13.32,1.61,1,1.5,1.93l-.16,1.5c-.05.91-.48,1.34-1.23,1.34a15.55,15.55,0,0,1-2-.37,15.27,15.27,0,0,0-3.43-.38c-3,0-4.45,1.34-4.45,2.9,0,1.34.91,2.31,3.92,3.33l2.31.8c4.24,1.45,6.33,4,6.33,7.67A8.26,8.26,0,0,1,340.27,39.38Z"/><path class="cls-2" d="M38,38.58a3.55,3.55,0,0,1-3.65,3.49H32.5a3.94,3.94,0,0,1-3.27-1.77L20.06,27.53,10.83,40.29a4,4,0,0,1-3.33,1.77H5.68a3.53,3.53,0,0,1-3.59-3.49L0,6.58C0,4.54,1.5,4,3.54,4,5.79,4,7,4.49,7.13,6.47L8.58,32.68,16.3,21.41A4.76,4.76,0,0,1,20,19.27a4.78,4.78,0,0,1,3.75,2.15l7.67,11.21,1.5-26.16C33,4.49,34.38,4,36.47,4s3.59.56,3.59,2.59Z"/><path class="cls-2" d="M49.39,4h11.8a12.74,12.74,0,1,1,0,25.48H52.88V39.52c0,1.93-1.56,2.54-3.49,2.54s-3.54-.61-3.54-2.54V7.47A3.56,3.56,0,0,1,49.39,4Zm3.49,19h8.31a6.38,6.38,0,0,0,6-6.28c0-3.33-2.84-6.33-6-6.33H52.88Z"/><path class="cls-2" d="M77.18,31.12c-1,0-2.37-1.39-2.37-3.11s1.34-3.11,2.37-3.11h5.76c1,0,2.33,1.45,2.33,3.11s-1.34,3.11-2.33,3.11Z"/><path class="cls-2" d="M111.55,7.2c0,1.93-.56,3.22-2.49,3.22H99.8v29.1c0,1.93-1.56,2.54-3.54,2.54s-3.54-.61-3.54-2.54V10.42H83.52C81.59,10.42,81,9.13,81,7.2S81.59,4,83.52,4h25.55C111,4,111.55,5.22,111.55,7.2Z"/><path class="cls-3" d="M269.85,37.72c-.8.72-1.62,1.46-2.45,2.18a1.09,1.09,0,0,1-1.72-.27,1.41,1.41,0,0,1-.18-.76q.27-4.09.58-8.18a1.14,1.14,0,0,1,1.27-1.14c2.68.18,5.35.37,8,.57a1.12,1.12,0,0,1,1.06.86,1.16,1.16,0,0,1-.41,1.27c-.86.75-1.71,1.51-2.59,2.28a8.57,8.57,0,0,0,2.07,1.71c4.14,2.48,8.64,1.27,10.61-2.59.35-.68.55-1.87.89-2.56.18-.36,2.18,0,2.57,0,1.05.09,2.11.15,3.16.23.57,0,.78.38.61.92a14.39,14.39,0,0,1-6.3,8.15,12.78,12.78,0,0,1-6.18,1.87,13.4,13.4,0,0,1-9-2.8C271.17,39,270.55,38.34,269.85,37.72Z"/><path class="cls-4" d="M290.56,18.45c.8-.72,1.62-1.46,2.45-2.18a1.09,1.09,0,0,1,1.72.27,1.41,1.41,0,0,1,.18.76q-.27,4.09-.58,8.18a1.14,1.14,0,0,1-1.27,1.14c-2.68-.18-5.35-.37-8-.57a1.12,1.12,0,0,1-1.06-.86,1.16,1.16,0,0,1,.41-1.27c.86-.75,1.71-1.51,2.59-2.28a8.57,8.57,0,0,0-2.07-1.71c-4.14-2.48-8.64-1.27-10.61,2.59-.35.68-.55,1.87-.89,2.56-.18.36-2.18,0-2.57,0-1.05-.09-2.11-.15-3.16-.23-.57,0-.78-.38-.61-.92a14.39,14.39,0,0,1,6.3-8.15,12.78,12.78,0,0,1,6.18-1.87,13.4,13.4,0,0,1,9,2.8C289.24,17.2,289.86,17.83,290.56,18.45Z"/></g></g></svg>